<?xml version="1.0" encoding="UTF-8" standalone="no"?>
<!-- Created with Inkscape (http://www.inkscape.org/) -->

<svg
   version="1.1"
   id="svg683"
   width="514.52588"
   height="516.43799"
   viewBox="0 0 514.52588 516.43799"
   sodipodi:docname="telephone.png"
   xmlns:inkscape="http://www.inkscape.org/namespaces/inkscape"
   xmlns:sodipodi="http://sodipodi.sourceforge.net/DTD/sodipodi-0.dtd"
   xmlns="http://www.w3.org/2000/svg"
   xmlns:svg="http://www.w3.org/2000/svg">
  <defs
     id="defs687" />
  <sodipodi:namedview
     id="namedview685"
     pagecolor="#ffffff"
     bordercolor="#000000"
     borderopacity="0.25"
     inkscape:showpageshadow="2"
     inkscape:pageopacity="0.0"
     inkscape:pagecheckerboard="0"
     inkscape:deskcolor="#d1d1d1"
     showgrid="false" />
  <g
     inkscape:groupmode="layer"
     inkscape:label="Image"
     id="g689"
     transform="translate(-2.8636068,-0.95149)">
    <g
       id="g817"
       transform="translate(1.4803512,0.47669194)"
       style="fill:#000000;fill-opacity:1">
      <path
         style="fill:#000000;fill-opacity:1;stroke-width:1.01053"
         d="m 466.35215,342.31579 -33.34163,-33.6 33.6,33.34163 c 31.22685,30.98671 34.05467,33.85837 33.34163,33.85837 -0.14211,0 -15.26211,-15.12 -33.6,-33.6 z m -339.59467,26.27368 -2.96801,-3.28421 3.28421,2.96801 c 3.06135,2.7666 3.7487,3.60041 2.96801,3.60041 -0.17391,0 -1.65181,-1.47789 -3.28421,-3.28421 z m 30.31579,-7.07368 -2.96801,-3.28421 3.28421,2.968 c 3.06135,2.7666 3.7487,3.60042 2.96801,3.60042 -0.17391,0 -1.65181,-1.4779 -3.28421,-3.28421 z m 181.95831,-32.08421 c 10.54902,-10.56 19.40742,-19.2 19.68531,-19.2 0.2779,0 -8.12576,8.64 -18.67479,19.2 -10.54902,10.56 -19.40742,19.2 -19.68531,19.2 -0.2779,0 8.12576,-8.64 18.67479,-19.2 z M 221.17636,310.48421 c -1.25696,-1.60276 -1.22122,-1.6385 0.38153,-0.38154 0.97263,0.7628 1.76842,1.55859 1.76842,1.76843 0,0.8317 -0.82983,0.29639 -2.14995,-1.38689 z m -13.08443,-13.13684 -2.44983,-2.77895 2.77895,2.44983 c 2.59735,2.28974 3.24237,3.10806 2.44983,3.10806 -0.18101,0 -1.43153,-1.25052 -2.77895,-2.77894 z M 64.168421,55.578947 C 75.273787,44.463158 84.587365,35.368421 84.86526,35.368421 c 0.277894,0 -8.580946,9.094737 -19.686313,20.210526 -11.105367,11.115789 -20.418944,20.210526 -20.696839,20.210526 -0.277895,0 8.580946,-9.094737 19.686313,-20.210526 z"
         id="path833" />
      <path
         style="fill:#000000;fill-opacity:1;stroke-width:1.01053"
         d="m 131.77767,373.6421 -1.92504,-2.27368 2.27368,1.92504 c 2.1367,1.80907 2.73372,2.62233 1.92505,2.62233 -0.19176,0 -1.21492,-1.02316 -2.27369,-2.27369 z m 19.72479,-17.68421 -2.44983,-2.77895 2.77895,2.44983 c 2.59734,2.28975 3.24236,3.10807 2.44983,3.10807 -0.18101,0 -1.43153,-1.25053 -2.77895,-2.77895 z m 61.11732,-54.06316 -1.92504,-2.27368 2.27368,1.92504 c 2.1367,1.80907 2.73372,2.62233 1.92504,2.62233 -0.19176,0 -1.21491,-1.02316 -2.27368,-2.27369 z m -69.66194,-246.568415 -6.03153,-6.315789 6.31579,6.031525 c 3.47369,3.317339 6.31579,6.159444 6.31579,6.31579 0,0.74668 -0.99727,-0.164696 -6.60005,-6.031526 z"
         id="path831" />
      <path
         style="fill:#000000;fill-opacity:1;stroke-width:1.01053"
         d="m 470.4,443.62105 c 4.97893,-5.00211 9.27996,-9.09474 9.55786,-9.09474 0.27789,0 -3.5684,4.09263 -8.54734,9.09474 -4.97893,5.0021 -9.27996,9.09474 -9.55786,9.09474 -0.27789,0 3.5684,-4.09264 8.54734,-9.09474 z m -334.05544,-65.43158 -2.44982,-2.77895 2.77894,2.44983 c 2.59735,2.28974 3.24237,3.10807 2.44983,3.10807 -0.181,0 -1.43153,-1.25053 -2.77895,-2.77895 z m 10.59101,-26.77895 -1.92504,-2.27368 2.27368,1.92504 c 2.1367,1.80907 2.73372,2.62233 1.92504,2.62233 -0.19176,0 -1.21491,-1.02316 -2.27368,-2.27369 z m 69.18816,-45.97894 c -1.25697,-1.60276 -1.22122,-1.6385 0.38153,-0.38154 0.97263,0.7628 1.76842,1.55859 1.76842,1.76842 0,0.83171 -0.82983,0.2964 -2.14995,-1.38688 z M 140.54294,196.46316 c 0.0485,-1.17721 0.28794,-1.41666 0.61052,-0.61053 0.29191,0.72947 0.25601,1.60105 -0.0797,1.93685 -0.3358,0.33578 -0.57463,-0.26106 -0.53075,-1.32632 z m 17.07685,-126.484213 -8.56716,-8.842105 8.84211,8.567163 c 8.21228,7.956926 9.30243,9.117047 8.56716,9.117047 -0.15122,0 -4.13017,-3.978947 -8.84211,-8.842105 z m -26.28589,-26.273684 -5.52337,-5.810526 5.81052,5.523375 c 5.39816,5.13139 6.27344,6.097677 5.52338,6.097677 -0.15794,0 -2.77268,-2.614737 -5.81053,-5.810526 z"
         id="path829" />
      <path
         style="fill:#000000;fill-opacity:1;stroke-width:1.01053"
         d="m 455.74737,458.46274 c 0,-0.17391 1.47789,-1.65181 3.28421,-3.28421 l 3.28421,-2.96801 -2.96801,3.28421 c -2.7666,3.06135 -3.60041,3.7487 -3.60041,2.96801 z m -314.87496,-75.7259 -1.92504,-2.27368 2.27368,1.92504 c 2.1367,1.80906 2.73372,2.62232 1.92504,2.62232 -0.19175,0 -1.21491,-1.02315 -2.27368,-2.27368 z m -0.32947,-189.30526 c 0.0485,-1.17721 0.28794,-1.41666 0.61052,-0.61053 0.29191,0.72947 0.25601,1.60105 -0.0797,1.93685 -0.3358,0.33578 -0.57463,-0.26106 -0.53075,-1.32632 z M 176.82405,89.178947 166.23158,78.315789 177.09474,88.90826 c 10.08993,9.838513 11.32228,11.13384 10.59246,11.13384 -0.14887,0 -5.03729,-4.888416 -10.86315,-10.863153 z M 124.16583,36.631579 c -1.25696,-1.602752 -1.22122,-1.638494 0.38154,-0.38153 1.68328,1.320121 2.21859,2.149951 1.38688,2.149951 -0.20983,0 -1.00562,-0.79579 -1.76842,-1.768421 z"
         id="path827" />
      <path
         style="fill:#000000;fill-opacity:1;stroke-width:1.01053"
         d="m 438.56842,476.65221 c 0,-0.17391 1.47789,-1.6518 3.28421,-3.28421 l 3.28421,-2.968 -2.96801,3.28421 c -2.7666,3.06135 -3.60041,3.7487 -3.60041,2.968 z M 144.37636,386.27368 c -1.25696,-1.60275 -1.22122,-1.6385 0.38153,-0.38153 0.97264,0.76279 1.76842,1.55858 1.76842,1.76842 0,0.8317 -0.82983,0.2964 -2.14995,-1.38689 z"
         id="path825" />
      <path
         style="fill:#000000;fill-opacity:1;stroke-width:1.01053"
         d="m 395.87368,293.3939 c 0.69474,-0.28033 1.83158,-0.28033 2.52632,0 0.69473,0.28033 0.12631,0.5097 -1.26316,0.5097 -1.38947,0 -1.9579,-0.22937 -1.26316,-0.5097 z M 200.08421,164.39958 c 0,-0.17391 1.47789,-1.6518 3.28421,-3.28421 l 3.28421,-2.968 -2.96801,3.28421 c -2.7666,3.06135 -3.60041,3.7487 -3.60041,2.968 z m -11.6322,-100.989054 -17.1678,-17.431579 17.43158,17.167799 c 9.58737,9.44229 17.43158,17.286501 17.43158,17.431579 0,0.720586 -1.7455,-0.972869 -17.69536,-17.167799 z M 26.273684,56.327123 c 0,-0.144292 8.981053,-9.125344 19.957895,-19.957894 L 66.189473,16.673684 46.493928,36.631579 C 28.194227,55.175038 26.273684,57.045743 26.273684,56.327123 Z M 145.51579,20.715789 c -2.4546,-2.501052 -4.23554,-4.547368 -3.95765,-4.547368 0.2779,0 2.51358,2.046316 4.96817,4.547368 2.4546,2.501053 4.23554,4.547369 3.95765,4.547369 -0.27789,0 -2.51357,-2.046316 -4.96817,-4.547369 z"
         id="path823" />
      <path
         style="fill:#000000;fill-opacity:1;stroke-width:1.01053"
         d="m 459.28421,492.12631 c 2.17085,-2.22316 4.17438,-4.0421 4.45228,-4.0421 0.27789,0 -1.2709,1.81894 -3.44176,4.0421 -2.17085,2.22316 -4.17438,4.04211 -4.45227,4.04211 -0.2779,0 1.27089,-1.81895 3.44175,-4.04211 z m -64.3579,-0.6903 c 0.72947,-0.29191 1.60106,-0.25602 1.93685,0.0797 0.33579,0.33579 -0.26106,0.57463 -1.32632,0.53075 -1.17721,-0.0485 -1.41665,-0.28794 -0.61053,-0.61052 z m 78,-13.8386 c 0,-0.20984 0.79579,-1.00563 1.76842,-1.76842 1.60276,-1.25696 1.6385,-1.22122 0.38154,0.38153 -1.32012,1.68329 -2.14996,2.21859 -2.14996,1.38689 z M 475.41464,388.8 470.4,383.49473 l 5.30526,5.01465 c 2.91789,2.75805 5.30526,5.14542 5.30526,5.30526 0,0.75405 -0.93618,-0.0849 -5.59588,-5.01464 z m -242.03746,-103.57895 -3.48244,-3.78947 3.78947,3.48244 c 3.52716,3.24138 4.2541,4.0965 3.48244,4.0965 -0.16886,0 -1.87413,-1.70526 -3.78947,-3.78947 z m -39.86139,-114.4421 c 3.29994,-3.33474 6.22726,-6.06316 6.50515,-6.06316 0.27789,0 -2.19468,2.72842 -5.49463,6.06316 -3.29994,3.33473 -6.22725,6.06315 -6.50515,6.06315 -0.27789,0 2.19468,-2.72842 5.49463,-6.06315 z M 167.69297,42.694737 164.21053,38.905263 168,42.387705 c 3.52716,3.241382 4.2541,4.096505 3.48244,4.096505 -0.16886,0 -1.87413,-1.705263 -3.78947,-3.789473 z m -11.59828,-11.621053 -6.03153,-6.315789 6.31579,6.031525 c 5.86683,5.602771 6.7782,6.600053 6.03152,6.600053 -0.15634,0 -2.99845,-2.842105 -6.31578,-6.315789 z"
         id="path821" />
      <path
         style="fill:#000000;fill-opacity:1;stroke-width:1.01053"
         d="m 380.71418,515.91514 c -26.4469,-3.34667 -48.936,-9.92029 -78.56681,-22.96527 C 246.71181,468.54436 192.25609,431.55734 146.28472,387.08602 99.890597,342.20574 57.778464,285.14485 33.260033,233.94039 -3.0826906,158.04199 -8.3989736,101.52654 17.564329,67.08511 20.03055,63.813562 33.799064,49.541052 48.161026,35.368421 70.519337,13.304854 75.249092,9.119524 81.057956,6.2581397 96.274205,-1.2372226 111.31377,-1.4473013 126.02803,5.629979 c 8.36723,4.0244713 16.86563,11.932771 63.04129,58.663861 23.55639,23.83975 26.19606,26.85982 29.52382,33.778532 7.22582,15.023108 7.26439,28.175468 0.12627,43.064158 -2.86664,5.97923 -6.15916,10.03735 -18.88515,23.27639 -8.47727,8.81903 -19.14712,19.58683 -23.7108,23.92847 l -8.29758,7.89388 4.90714,9.75604 c 24.9197,49.54359 88.36279,112.6019 140.20262,139.35231 l 7.25144,3.74188 22.59854,-22.28987 c 23.75235,-23.42791 29.39776,-27.69911 41.14516,-31.12965 7.88096,-2.30143 19.94144,-2.07815 27.63794,0.51167 11.54404,3.88452 17.74036,9.17914 56.86399,48.5892 33.3497,33.59385 37.85754,38.51807 41.23283,45.04135 9.14851,17.68098 8.23141,35.54146 -2.67322,52.06083 -5.38113,8.15182 -50.68534,54.0222 -59.64123,60.38656 -16.98746,12.07185 -40.72756,16.93822 -66.63691,13.65955 z m 24.90958,-24.83557 c 10.34992,-1.1857 20.03865,-4.6906 27.52138,-9.95586 2.85297,-2.00752 15.72701,-14.4647 28.60896,-27.68263 25.56655,-26.23337 28.32274,-30.09272 28.34129,-39.68478 0.0194,-10.01638 -2.04017,-12.57797 -42.10568,-52.36986 -23.14556,-22.98749 -38.43368,-37.3975 -41.292,-38.92028 -6.02402,-3.20931 -13.80875,-3.27151 -19.83755,-0.15849 -2.62079,1.35328 -14.10585,11.90254 -28.63447,26.30139 -25.82726,25.59655 -28.35783,27.45963 -37.36763,27.51114 -4.26816,0.0243 -7.04355,-1.00785 -18.18947,-6.76519 -45.73228,-23.62268 -92.49109,-64.9564 -129.84636,-114.78119 -15.64782,-20.8712 -29.87951,-46.78268 -31.02989,-56.49575 -1.25455,-10.59271 -1.49134,-10.2492 26.48512,-38.42041 27.26503,-27.45484 29.79671,-30.83384 29.77582,-39.74144 -0.0225,-9.62451 -2.45241,-12.63404 -42.23439,-52.309825 C 114.77232,26.66938 113.54125,25.708581 103.11193,26.470749 93.339283,27.184926 89.955523,29.727645 63.862991,55.964277 38.907311,81.057776 34.362129,86.74183 30.232816,98.021052 c -2.206614,6.027368 -2.401887,8.066728 -2.370616,24.757898 0.03043,16.24286 0.329924,19.43313 2.798527,29.81052 16.826588,70.73473 66.598863,151.13252 134.156363,216.70448 36.37919,35.30999 74.34532,62.81231 119.64607,86.67054 41.87057,22.05168 69.56236,31.23269 107.11578,35.51343 1.66737,0.19007 3.48632,0.40998 4.04211,0.48869 0.55579,0.0787 5.05701,-0.32045 10.00271,-0.88704 z"
         id="path819" />
    </g>
  </g>
</svg>
