<?xml version="1.0" encoding="UTF-8" standalone="no"?>
<!-- Created with Inkscape (http://www.inkscape.org/) -->

<svg
   version="1.1"
   id="svg508"
   width="511"
   height="342.10883"
   viewBox="0 0 511 342.10883"
   sodipodi:docname="email.svg"
   inkscape:version="1.2.2 (732a01da63, 2022-12-09)"
   xmlns:inkscape="http://www.inkscape.org/namespaces/inkscape"
   xmlns:sodipodi="http://sodipodi.sourceforge.net/DTD/sodipodi-0.dtd"
   xmlns="http://www.w3.org/2000/svg"
   xmlns:svg="http://www.w3.org/2000/svg">
  <defs
     id="defs512" />
  <sodipodi:namedview
     id="namedview510"
     pagecolor="#ffffff"
     bordercolor="#000000"
     borderopacity="0.25"
     inkscape:showpageshadow="2"
     inkscape:pageopacity="0.0"
     inkscape:pagecheckerboard="0"
     inkscape:deskcolor="#d1d1d1"
     showgrid="false"
     inkscape:zoom="1.0893651"
     inkscape:cx="195.52673"
     inkscape:cy="151.46437"
     inkscape:window-width="1470"
     inkscape:window-height="920"
     inkscape:window-x="0"
     inkscape:window-y="36"
     inkscape:window-maximized="0"
     inkscape:current-layer="g514" />
  <g
     inkscape:groupmode="layer"
     inkscape:label="Image"
     id="g514"
     transform="translate(-1,-63.065535)">
    <g
       id="g2763"
       inkscape:label="email">
      <path
         id="rect894"
         style="fill:#ffffff;fill-opacity:1;stroke-width:0"
         d="M 20.636719 64.215926 L 20.636719 64.460066 C 20.937322 64.383955 21.229517 64.281055 21.533203 64.215926 L 20.636719 64.215926 z M 491.4668 64.215926 C 491.77048 64.281055 492.06268 64.383955 492.36328 64.460066 L 492.36328 64.215926 L 491.4668 64.215926 z M 146.83008 83.374129 L 37.160156 83.628035 L 140.31836 160.99327 C 197.05531 203.54332 245.16931 238.96008 247.23828 239.69835 C 249.30724 240.43662 253.475 241.0421 256.5 241.0421 C 259.525 241.0421 263.69276 240.43662 265.76172 239.69835 C 267.83069 238.96008 315.94469 203.54332 372.68164 160.99327 L 475.83984 83.628035 L 366.16992 83.374129 C 305.85151 83.234199 207.14849 83.234199 146.83008 83.374129 z M 21 96.004988 L 20.742188 164.56749 C 20.600898 202.27671 20.600898 263.94605 20.742188 301.61046 L 21 370.09093 L 74.5 303.94444 C 103.92497 267.56439 129.40224 236.29832 131.11719 234.46397 C 134.63114 230.70536 138.62312 230.10765 143.4668 232.61241 C 147.05925 234.47014 149.00244 239.6775 147.53906 243.52647 C 146.97735 245.00387 121.69346 276.90671 91.353516 314.421 C 61.013576 351.9353 35.754836 383.19054 35.222656 383.87804 C 34.449247 384.87718 78.854888 385.12804 256.5 385.12804 C 434.14511 385.12804 478.55076 384.87718 477.77734 383.87804 C 477.24517 383.19054 451.98642 351.9353 421.64648 314.421 C 391.30654 276.90671 366.02265 245.00387 365.46094 243.52647 C 363.99756 239.6775 365.94075 234.47014 369.5332 232.61241 C 374.37688 230.10765 378.36886 230.70536 381.88281 234.46397 C 383.59776 236.29832 409.07503 267.56439 438.5 303.94444 L 492 370.09093 L 492.25781 301.61046 C 492.3991 263.94605 492.3991 202.27671 492.25781 164.56749 L 492 96.004988 L 386.5 175.18858 C 328.47506 218.74035 278.75 255.42421 276 256.70616 C 264.49805 262.06799 248.50195 262.06799 237 256.70616 C 234.25 255.42421 184.52494 218.74035 126.5 175.18858 L 21 96.004988 z M 20.636719 403.71983 L 20.636719 404.02452 L 27.646484 404.02452 C 23.691463 403.92805 21.300995 403.82746 20.636719 403.71983 z M 492.36328 403.79796 C 492.08429 403.8686 491.8129 403.96333 491.53125 404.02452 L 492.36328 404.02452 L 492.36328 403.79796 z "
         inkscape:label="fill" />
      <path
         style="fill:#000000;fill-opacity:1"
         d="M 20.17233,403.69633 C 13.25418,401.83679 7.69115,397.48589 4.10378,391.12896 L 1,385.62896 v -151.5 -151.500003 l 3.08414,-5.5 c 3.68286,-6.56772 10.13929,-11.34604 17.44881,-12.91365 7.14829,-1.53303 462.78581,-1.53303 469.9341,0 7.30952,1.56761 13.76595,6.34593 17.44881,12.91365 l 3.08414,5.5 v 151.500003 151.5 l -3.08414,5.5 c -3.68286,6.56771 -10.13929,11.34603 -17.44881,12.91365 -8.00984,1.7178 -464.86442,1.38214 -471.29472,-0.34628 z M 477.7773,383.87896 c -0.53217,-0.6875 -25.79121,-31.94354 -56.13118,-69.45787 -30.33997,-37.51433 -55.62316,-69.41665 -56.18487,-70.89405 -1.46338,-3.84898 0.47992,-9.05774 4.07238,-10.91547 4.84368,-2.50476 8.83433,-1.90606 12.34829,1.85256 1.71495,1.83435 27.19308,33.1007 56.61808,69.48079 l 53.5,66.14561 0.25689,-68.48078 c 0.14129,-37.66444 0.14129,-99.33381 0,-137.04307 L 492,96.004407 386.5,175.1895 c -58.025,43.55181 -107.75,80.23398 -110.5,81.51593 -11.50196,5.36184 -27.49804,5.36184 -39,0 -2.75,-1.28195 -52.475,-37.96412 -110.5,-81.51593 L 21,96.004407 20.74311,164.56668 c -0.14129,37.70926 -0.14129,99.37863 0,137.04307 L 21,370.09053 74.5,303.94492 c 29.425,-36.38009 54.90313,-67.64644 56.61808,-69.48079 3.51396,-3.75862 7.50461,-4.35732 12.34829,-1.85256 3.59246,1.85773 5.53576,7.06649 4.07238,10.91547 -0.56171,1.4774 -25.8449,33.37972 -56.18487,70.89405 -30.33997,37.51433 -55.599,68.77037 -56.13118,69.45787 -0.77341,0.99915 43.63201,1.25 221.2773,1.25 177.64529,0 222.05072,-0.25085 221.2773,-1.25 z M 265.76175,239.69886 c 2.06897,-0.73827 50.18294,-36.15601 106.91995,-78.7061 l 103.15818,-77.363803 -109.66994,-0.2544 c -60.31847,-0.13993 -159.02141,-0.13993 -219.33988,0 l -109.66994,0.2544 103.15818,77.363803 c 56.73701,42.55009 104.85098,77.96783 106.91995,78.7061 2.06896,0.73827 6.23675,1.34231 9.26175,1.34231 3.025,0 7.19279,-0.60404 9.26175,-1.34231 z"
         id="path2752"
         inkscape:export-filename="path732.svg"
         inkscape:export-xdpi="96"
         inkscape:export-ydpi="96"
         inkscape:label="outline" />
    </g>
  </g>
</svg>
