<?xml version="1.0" encoding="UTF-8" standalone="no"?>
<!-- Created with Inkscape (http://www.inkscape.org/) -->

<svg
   version="1.1"
   id="svg225"
   width="500"
   height="500"
   viewBox="0 0 500 500"
   sodipodi:docname="github.png"
   xmlns:inkscape="http://www.inkscape.org/namespaces/inkscape"
   xmlns:sodipodi="http://sodipodi.sourceforge.net/DTD/sodipodi-0.dtd"
   xmlns="http://www.w3.org/2000/svg"
   xmlns:svg="http://www.w3.org/2000/svg">
  <defs
     id="defs229" />
  <sodipodi:namedview
     id="namedview227"
     pagecolor="#ffffff"
     bordercolor="#000000"
     borderopacity="0.25"
     inkscape:showpageshadow="2"
     inkscape:pageopacity="0.0"
     inkscape:pagecheckerboard="0"
     inkscape:deskcolor="#d1d1d1"
     showgrid="false" />
  <g
     inkscape:groupmode="layer"
     inkscape:label="Image"
     id="g231"
     transform="translate(-0.49781375)">
    <path
       style="fill:#000000;stroke-width:0.987959"
       d="m 171.7869,499.53552 c -5.14174,-1.37068 -18.27343,-6.71057 -27.85743,-11.32796 C 73.300992,454.18007 21.54951,386.80721 5.7113078,308.26771 -4.0843344,259.69239 0.0028723,208.63023 17.305404,163.4208 39.863458,104.47921 82.530789,56.024045 136.59857,27.945391 174.35064,8.3398632 209.27231,-0.15658155 251.44936,0.00218226 284.2415,0.1256193 313.05764,5.644548 341.63293,17.274333 455.45065,63.596711 520.03813,185.96968 495.21694,308.26771 480.49159,380.82196 436.3199,442.83657 373.05543,479.77578 c -13.49936,7.88213 -35.07289,17.50786 -44.38725,19.80489 -4.50472,1.11092 -9.78348,-0.39356 -12.77056,-3.63969 l -2.37997,-2.58636 -0.56366,-45.6083 c -0.53388,-43.19837 -0.67737,-45.99552 -2.71543,-52.9368 -2.75313,-9.37661 -6.14545,-16.18349 -10.54455,-21.15819 -4.01844,-4.54426 -4.25047,-4.36006 7.47019,-5.93065 67.75509,-9.07961 102.52047,-50.40774 102.6147,-121.98564 0.021,-15.92858 -1.69631,-27.29464 -5.93007,-39.24858 -3.04154,-8.58771 -11.1694,-22.94906 -16.4958,-29.14687 l -2.85125,-3.31767 1.94393,-6.77506 c 2.47804,-8.63658 3.43329,-26.30692 1.9588,-36.23434 -0.61183,-4.11932 -2.26445,-11.38277 -3.67247,-16.14098 -2.44999,-8.27941 -2.69848,-8.67788 -5.77957,-9.2684 -4.02474,-0.77143 -13.71093,0.76939 -21.97935,3.49623 -8.35258,2.75463 -25.8487,11.5282 -35.85953,17.98213 l -8.04331,5.18548 -8.08468,-2.04756 c -18.38771,-4.65701 -28.34472,-5.69768 -54.5137,-5.69768 -26.14878,0 -36.12798,1.0414 -54.45634,5.68297 l -8.0273,2.03285 -9.6301,-6.0806 c -21.81735,-13.7759 -46.0849,-22.64454 -56.51669,-20.65424 -2.84547,0.54289 -3.18368,1.10244 -5.62035,9.2989 -5.18537,17.44256 -5.87365,38.64978 -1.6929,52.16126 l 2.00847,6.49102 -1.97114,2.49655 c -5.12082,6.48576 -12.97742,19.51099 -15.674451,25.98613 -5.294872,12.71221 -6.919931,20.99047 -7.48333,38.12112 -1.51867,46.17606 12.025571,82.08373 38.943781,103.24538 15.09759,11.86893 38.0483,20.90357 61.96187,24.3916 13.32459,1.94352 12.79772,1.59002 8.91475,5.98106 -4.16972,4.71536 -8.92356,14.77706 -10.73983,22.73129 -0.76311,3.34196 -1.67187,6.54644 -2.01949,7.12106 -1.17386,1.94051 -16.22319,6.09048 -24.30004,6.70091 -19.46771,1.47143 -34.11688,-6.55328 -46.60691,-25.53087 -9.45082,-14.35977 -17.53763,-21.62961 -28.858547,-25.94327 -6.333211,-2.41318 -14.839265,-2.92704 -19.30471,-1.16621 -5.607471,2.21116 -2.894524,6.95123 9.041448,15.79729 10.363861,7.68095 15.839229,15.38122 25.411339,35.73726 5.18365,11.02348 7.02738,13.87988 12.69997,19.67529 12.58199,12.85448 29.48873,18.59725 51.32153,17.43255 6.45347,-0.34425 13.48067,-1.05654 15.61597,-1.58291 2.13529,-0.52631 3.98861,-0.84844 4.11846,-0.71578 0.12986,0.1327 0.29247,10.90898 0.36138,23.94733 0.1069,20.22996 -0.10485,24.06498 -1.44408,26.15315 -3.05297,4.76033 -9.08048,7.01084 -14.73776,5.50269 z"
       id="path693" />
  </g>
</svg>
